<svg xmlns="http://www.w3.org/2000/svg" xml:space="preserve" width="655.359" height="655.359" style="shape-rendering:geometricPrecision;text-rendering:geometricPrecision;image-rendering:optimizeQuality;fill-rule:evenodd;clip-rule:evenodd" viewBox="0 0 6.827 6.827"><defs><style>.fil3{fill:#424143}.fil16{fill:#939598}.fil17{fill:#f2f2f2}</style></defs><g id="Layer_x0020_1"><g id="_625046688"><g id="Layer_24"><path id="_625050384" style="fill:#dde2e4" d="M1.399 1.94h4.029v2.604H1.399z"/><path id="_625050984" d="M5.495 4.61H1.332V1.875h4.162V4.61zm-4.03-.132h3.897V2.007H1.465v2.47z" style="fill:#595a5c"/><path id="_625050360" style="fill:#d3dade" d="M3.413 2.007h1.955v2.471H3.413z"/><path id="_625049736" class="fil3" d="M5.495 4.61H3.413v-.132h1.949V2.007H3.413v-.133h2.082z"/><path id="_625050216" class="fil3" d="M5.719 4.953H1.108a.173.173 0 0 1-.173-.173v-.17h4.957v.17a.173.173 0 0 1-.173.173z"/><path id="_625050000" d="M5.72 4.953H3.412v-.342h2.48v.17a.173.173 0 0 1-.174.172z" style="fill:#2e2d2c"/><path id="_625049760" style="fill:#3a3a3a" d="M.935 4.611h4.958v.117H.935z"/><path id="_625049472" style="fill:#353434" d="M3.413 4.611h2.479v.117H3.413z"/><path id="_625049040" style="fill:#262525" d="M2.985 4.611h.856v.117h-.856z"/><g><path id="_625048992" style="fill:#1e1d1d" d="M3.413 4.611h.428v.117h-.428z"/></g><g><path id="_625048824" style="fill:#bcc8ce" d="M1.598 2.387h3.634v1.96H1.598z"/><path id="_625048320" style="fill:#92aeb7" d="M1.598 2.143h3.634v.244H1.598z"/><path id="_625048392" d="M1.811 2.303h-.075a.027.027 0 0 1-.027-.027v-.022c0-.015.012-.027.027-.027h.075c.015 0 .028.012.028.027v.022a.027.027 0 0 1-.028.027z" style="fill:#be1e2d"/><path id="_625048128" d="M2.015 2.303H1.94a.027.027 0 0 1-.027-.027v-.022c0-.015.012-.027.027-.027h.075c.015 0 .027.012.027.027v.022a.027.027 0 0 1-.027.027z" style="fill:#ffde17"/><path id="_625048032" d="M2.22 2.303h-.076a.027.027 0 0 1-.027-.027v-.022c0-.015.012-.027.027-.027h.075c.015 0 .027.012.027.027v.022a.027.027 0 0 1-.027.027z" style="fill:#39b54a"/></g><g><path id="_625048104" style="fill:#b22725" d="M4.002 4.094H2.824l.129-1.126h.921z"/></g><g><path id="_625048584" style="fill:#9d2221" d="M4.002 4.094h-.589V2.968h.461z"/></g><g><ellipse id="_625047432" class="fil16" cx="3.167" cy="3.034" rx=".037" ry=".033"/></g><g><ellipse id="_625047648" class="fil17" cx="3.167" cy="3.034" rx=".03" ry=".027"/></g><g><ellipse id="_625047504" class="fil16" cx="3.661" cy="3.034" rx=".037" ry=".033"/></g><g><ellipse id="_625047984" class="fil17" cx="3.661" cy="3.034" rx=".03" ry=".027"/></g><g><path id="_625047840" d="M3.66 3.044a.017.017 0 0 1-.017-.017c0-.1-.025-.194-.07-.264-.043-.068-.1-.106-.16-.106s-.116.038-.16.106a.498.498 0 0 0-.07.264.017.017 0 0 1-.033 0c0-.106.026-.207.075-.283.05-.078.116-.12.188-.12s.14.042.19.12a.532.532 0 0 1 .074.283c0 .01-.008.017-.017.017z" style="fill:#fdd838"/></g></g></g></g><path style="fill:none" d="M0 0h6.827v6.827H0z"/></svg>